<svg xmlns="http://www.w3.org/2000/svg" xmlns:xlink="http://www.w3.org/1999/xlink" width="500" zoomAndPan="magnify" viewBox="0 0 375 374.999991" height="500" preserveAspectRatio="xMidYMid meet" version="1.0"><path fill="#3356a6" d="M 179.707031 74.246094 L 181.660156 74.234375 L 183.800781 74.230469 L 186.054688 74.222656 C 188.09375 74.214844 190.136719 74.210938 192.179688 74.207031 L 196.007812 74.199219 C 200 74.191406 203.996094 74.1875 207.992188 74.183594 C 212.597656 74.179688 217.207031 74.171875 221.816406 74.152344 C 225.378906 74.140625 228.941406 74.132812 232.503906 74.132812 C 234.632812 74.132812 236.761719 74.128906 238.886719 74.117188 C 241.261719 74.105469 243.636719 74.109375 246.011719 74.113281 L 248.140625 74.097656 L 250.105469 74.105469 L 251.808594 74.101562 C 253.839844 74.382812 255.328125 75.167969 257.113281 76.160156 L 257.375 166.410156 L 257.378906 168.332031 C 257.410156 178.550781 257.4375 188.773438 257.46875 198.992188 L 257.609375 248.246094 C 257.75 296.023438 257.75 296.023438 257.722656 318.378906 L 258.746094 318.425781 C 265.933594 318.753906 273.113281 319.121094 280.292969 319.597656 C 280.769531 297.660156 280.984375 275.71875 280.929688 253.777344 C 280.921875 249.242188 280.914062 244.710938 280.910156 240.179688 C 280.902344 232.804688 280.894531 225.429688 280.882812 218.054688 L 280.878906 216.738281 C 280.871094 210.503906 280.859375 204.273438 280.847656 198.042969 L 280.84375 196.699219 L 280.84375 195.355469 C 280.828125 187.964844 280.816406 180.570312 280.8125 173.179688 C 280.808594 169.058594 280.804688 164.9375 280.792969 160.8125 C 280.78125 156.964844 280.777344 153.113281 280.777344 149.265625 C 280.773438 147.859375 280.769531 146.449219 280.765625 145.042969 C 280.757812 143.121094 280.757812 141.195312 280.761719 139.269531 L 280.746094 137.601562 C 280.769531 131.972656 281.484375 126.601562 284.195312 121.601562 C 286.828125 117.527344 290.25 113.636719 294.460938 111.152344 C 302.289062 107.34375 310.789062 107.558594 319.277344 107.648438 C 320.535156 107.652344 321.792969 107.65625 323.050781 107.660156 C 326.328125 107.667969 329.605469 107.691406 332.878906 107.71875 C 336.238281 107.746094 339.59375 107.753906 342.953125 107.769531 C 349.515625 107.792969 356.078125 107.835938 362.640625 107.886719 C 363.324219 112.800781 363.339844 117.667969 363.328125 122.621094 L 363.332031 125.433594 C 363.335938 128 363.335938 130.566406 363.332031 133.132812 C 363.332031 135.902344 363.332031 138.671875 363.335938 141.445312 C 363.335938 146.871094 363.335938 152.292969 363.335938 157.71875 C 363.335938 164.039062 363.335938 170.355469 363.335938 176.671875 C 363.335938 188.628906 363.335938 200.582031 363.332031 212.539062 C 363.328125 222.792969 363.328125 233.050781 363.332031 243.304688 C 363.335938 257.121094 363.335938 270.9375 363.332031 284.75 C 363.332031 289.152344 363.335938 293.558594 363.335938 297.960938 C 363.335938 303.328125 363.335938 308.695312 363.332031 314.058594 C 363.332031 316.796875 363.332031 319.535156 363.332031 322.273438 C 363.335938 324.777344 363.335938 327.285156 363.332031 329.792969 C 363.332031 330.699219 363.332031 331.605469 363.332031 332.511719 C 363.339844 336.800781 363.324219 340.984375 362.640625 345.222656 C 349.058594 345.25 335.472656 345.273438 321.886719 345.285156 C 315.582031 345.292969 309.273438 345.300781 302.964844 345.316406 C 297.464844 345.328125 291.964844 345.335938 286.464844 345.335938 C 283.554688 345.339844 280.644531 345.34375 277.734375 345.351562 C 274.992188 345.359375 272.25 345.363281 269.507812 345.359375 C 268.503906 345.359375 267.5 345.363281 266.496094 345.367188 C 255.066406 345.417969 255.066406 345.417969 251.011719 343.394531 L 251.011719 342.171875 L 249.984375 341.792969 C 247.269531 340.179688 245.535156 337.371094 243.691406 334.851562 L 242.816406 337.023438 C 241.480469 339.667969 239.753906 341.273438 237.472656 343.121094 C 231.855469 346.015625 225.117188 345.398438 218.96875 345.382812 L 215.742188 345.386719 C 212.839844 345.394531 209.9375 345.390625 207.035156 345.386719 C 203.996094 345.382812 200.957031 345.386719 197.917969 345.386719 C 192.816406 345.390625 187.71875 345.386719 182.617188 345.382812 C 176.71875 345.375 170.820312 345.375 164.921875 345.382812 C 159.851562 345.390625 154.785156 345.390625 149.714844 345.386719 C 146.691406 345.386719 143.664062 345.386719 140.636719 345.390625 C 137.796875 345.390625 134.957031 345.390625 132.117188 345.382812 C 131.074219 345.382812 130.03125 345.382812 128.984375 345.382812 C 127.566406 345.386719 126.144531 345.382812 124.726562 345.378906 L 122.3125 345.375 L 120.472656 345.222656 L 119.253906 344.003906 C 119.144531 342.238281 119.097656 340.46875 119.113281 338.699219 L 119.113281 337.109375 C 119.117188 335.996094 119.121094 334.886719 119.128906 333.777344 C 119.140625 332.070312 119.140625 330.367188 119.140625 328.660156 L 119.152344 325.429688 L 119.152344 323.875 C 119.164062 322.652344 119.207031 321.429688 119.253906 320.207031 L 119.863281 319.597656 C 121.644531 319.496094 123.414062 319.4375 125.195312 319.40625 L 126.914062 319.367188 C 128.832031 319.324219 130.746094 319.289062 132.664062 319.253906 C 133.332031 319.242188 134 319.226562 134.691406 319.214844 C 146.425781 318.992188 158.15625 318.9375 169.894531 318.949219 L 171.144531 318.949219 C 177.054688 318.957031 182.964844 318.96875 188.875 318.984375 C 194.914062 319 200.957031 319.011719 206.996094 319.019531 C 209.78125 319.023438 212.570312 319.03125 215.355469 319.039062 L 219.683594 319.046875 L 221.65625 319.054688 L 223.484375 319.054688 L 225.058594 319.058594 C 226.808594 318.976562 228.542969 318.664062 230.273438 318.378906 L 230.273438 100.566406 L 201.605469 100.566406 L 201.585938 108.34375 C 201.511719 134.933594 201.441406 161.527344 201.375 188.117188 L 201.371094 189.972656 C 201.34375 199.914062 201.320312 209.851562 201.296875 219.789062 C 201.269531 229.976562 201.246094 240.167969 201.214844 250.355469 C 201.195312 256.648438 201.179688 262.941406 201.167969 269.234375 C 201.15625 273.542969 201.144531 277.851562 201.132812 282.160156 C 201.125 284.648438 201.117188 287.140625 201.113281 289.628906 C 201.109375 291.90625 201.101562 294.183594 201.09375 296.457031 C 201.089844 297.679688 201.089844 298.898438 201.089844 300.121094 L 201.078125 302.289062 L 201.074219 304.175781 L 200.992188 305.566406 L 200.382812 306.175781 C 198.492188 306.230469 196.613281 306.246094 194.71875 306.234375 L 193 306.230469 C 191.179688 306.230469 189.355469 306.222656 187.535156 306.214844 C 186.304688 306.210938 185.074219 306.207031 183.839844 306.207031 C 180.816406 306.199219 177.789062 306.1875 174.761719 306.175781 C 174.660156 273.9375 174.558594 241.691406 174.46875 209.441406 L 174.464844 207.386719 C 174.429688 196.410156 174.398438 185.433594 174.363281 174.457031 C 174.324219 163.195312 174.292969 151.933594 174.261719 140.671875 C 174.242188 133.722656 174.21875 126.773438 174.195312 119.824219 C 174.179688 115.058594 174.164062 110.296875 174.152344 105.53125 C 174.148438 102.78125 174.136719 100.03125 174.128906 97.28125 C 174.117188 94.765625 174.109375 92.246094 174.105469 89.730469 C 174.105469 88.820312 174.101562 87.90625 174.097656 86.996094 C 174.089844 85.757812 174.089844 84.519531 174.089844 83.28125 L 174.082031 81.195312 C 174.160156 79.078125 174.429688 77.035156 174.765625 74.941406 C 176.589844 74.332031 177.800781 74.25 179.707031 74.246094 M 307.742188 134.730469 C 307.097656 136.558594 307.058594 138.285156 307.054688 140.210938 L 307.050781 142.078125 L 307.054688 144.121094 L 307.050781 146.300781 C 307.050781 148.292969 307.050781 150.289062 307.054688 152.28125 C 307.054688 154.433594 307.054688 156.582031 307.050781 158.734375 C 307.046875 162.949219 307.046875 167.164062 307.050781 171.375 C 307.050781 174.804688 307.050781 178.230469 307.050781 181.65625 L 307.050781 186.105469 C 307.050781 195.394531 307.050781 204.6875 307.054688 213.976562 C 307.054688 221.945312 307.054688 229.914062 307.054688 237.882812 C 307.050781 248.125 307.046875 258.367188 307.050781 268.605469 L 307.050781 270.078125 C 307.050781 273.496094 307.050781 276.917969 307.050781 280.335938 C 307.046875 284.507812 307.046875 288.679688 307.050781 292.851562 C 307.054688 294.976562 307.054688 297.105469 307.050781 299.230469 C 307.050781 301.542969 307.050781 303.851562 307.054688 306.160156 L 307.050781 308.183594 C 307.0625 311.835938 307.21875 315.375 307.742188 318.988281 L 308.351562 319.597656 C 310.40625 319.742188 312.472656 319.683594 314.527344 319.675781 L 316.191406 319.679688 C 320.691406 319.675781 325.179688 319.488281 329.671875 319.289062 L 331.640625 319.199219 L 336.414062 318.988281 C 336.78125 272.632812 337.09375 226.28125 337.132812 179.925781 C 337.136719 176.414062 337.140625 172.90625 337.148438 169.394531 C 337.160156 165.125 337.164062 160.851562 337.164062 156.582031 C 337.160156 154.402344 337.164062 152.222656 337.171875 150.046875 C 337.175781 147.6875 337.175781 145.332031 337.171875 142.976562 C 337.175781 142.285156 337.175781 141.59375 337.179688 140.878906 L 337.171875 138.976562 L 337.175781 137.328125 C 337.109375 135.78125 337.109375 135.78125 335.800781 134.121094 C 334.609375 133.851562 334.609375 133.851562 333.21875 133.90625 L 331.601562 133.898438 L 329.855469 133.921875 L 328.0625 133.925781 C 326.8125 133.929688 325.5625 133.9375 324.308594 133.949219 C 322.390625 133.96875 320.472656 133.976562 318.550781 133.980469 C 317.335938 133.984375 316.125 133.992188 314.910156 133.996094 L 313.160156 134.003906 L 311.546875 134.023438 L 310.121094 134.035156 C 308.910156 134.050781 308.910156 134.050781 307.742188 134.730469 " fill-opacity="1" fill-rule="nonzero"/><path fill="#3356a6" d="M 132.921875 17.519531 L 135.160156 17.519531 C 137.167969 17.519531 139.175781 17.523438 141.183594 17.527344 C 143.289062 17.53125 145.394531 17.53125 147.5 17.53125 C 151.480469 17.535156 155.457031 17.539062 159.4375 17.546875 C 164.417969 17.550781 169.394531 17.554688 174.375 17.558594 C 183.246094 17.566406 192.121094 17.578125 200.992188 17.589844 L 200.992188 59.6875 C 183.914062 60.296875 183.914062 60.296875 175.375 60.296875 L 174.152344 59.078125 C 174.046875 57.277344 174.011719 55.539062 174.039062 53.738281 L 174.039062 52.261719 C 174.0625 49.523438 174.304688 47.179688 174.761719 44.433594 L 146.09375 43.824219 L 146.09375 305.566406 L 119.863281 305.566406 L 119.253906 304.953125 C 119.191406 303.4375 119.171875 301.933594 119.175781 300.414062 L 119.175781 298.945312 C 119.171875 297.304688 119.175781 295.664062 119.175781 294.023438 L 119.171875 290.480469 C 119.171875 287.222656 119.171875 283.960938 119.175781 280.699219 C 119.175781 277.191406 119.175781 273.683594 119.171875 270.171875 C 119.167969 263.292969 119.167969 256.410156 119.171875 249.53125 C 119.171875 243.941406 119.171875 238.351562 119.171875 232.761719 L 119.171875 225.515625 C 119.171875 210.808594 119.171875 196.101562 119.175781 181.390625 C 119.175781 167.953125 119.175781 154.515625 119.175781 141.074219 C 119.175781 124.386719 119.175781 107.695312 119.171875 91.003906 L 119.171875 88.609375 C 119.171875 83.023438 119.171875 77.433594 119.171875 71.847656 C 119.167969 65.046875 119.167969 58.242188 119.171875 51.4375 C 119.175781 47.964844 119.175781 44.488281 119.171875 41.015625 C 119.171875 37.839844 119.171875 34.664062 119.175781 31.488281 C 119.175781 30.335938 119.175781 29.179688 119.175781 28.027344 C 119.171875 26.46875 119.171875 24.910156 119.175781 23.351562 L 119.171875 21.964844 C 119.175781 20.914062 119.210938 19.859375 119.253906 18.808594 L 119.863281 18.199219 C 124.226562 17.558594 128.519531 17.503906 132.921875 17.519531 M 53.984375 107.886719 C 55.554688 107.773438 57.128906 107.722656 58.703125 107.738281 L 60.179688 107.734375 C 61.796875 107.734375 63.410156 107.738281 65.023438 107.746094 L 68.378906 107.746094 C 70.722656 107.746094 73.070312 107.753906 75.414062 107.761719 C 78.425781 107.769531 81.441406 107.773438 84.453125 107.773438 C 86.761719 107.773438 89.070312 107.777344 91.378906 107.78125 L 94.714844 107.785156 C 96.261719 107.785156 97.8125 107.789062 99.363281 107.796875 L 100.765625 107.796875 C 101.847656 107.804688 102.925781 107.84375 104.003906 107.886719 L 104.613281 108.496094 C 104.675781 110.339844 104.699219 112.164062 104.695312 114.007812 L 104.695312 115.683594 C 104.695312 116.851562 104.695312 118.023438 104.695312 119.195312 C 104.691406 120.996094 104.695312 122.796875 104.699219 124.597656 C 104.699219 125.730469 104.695312 126.867188 104.695312 128 L 104.699219 129.644531 C 104.691406 130.933594 104.660156 132.222656 104.613281 133.511719 L 104.003906 134.121094 C 102.207031 134.175781 100.40625 134.195312 98.605469 134.179688 L 96.96875 134.179688 C 95.234375 134.175781 93.5 134.167969 91.765625 134.160156 C 90.59375 134.15625 89.421875 134.152344 88.246094 134.152344 C 85.367188 134.144531 82.484375 134.132812 79.605469 134.121094 L 79.605469 135.199219 C 79.652344 159.382812 79.6875 183.5625 79.707031 207.746094 C 79.714844 215.917969 79.730469 224.089844 79.746094 232.265625 C 79.761719 240.664062 79.773438 249.0625 79.777344 257.457031 C 79.777344 262.632812 79.785156 267.804688 79.800781 272.980469 C 79.8125 276.539062 79.816406 280.09375 79.8125 283.652344 C 79.8125 285.699219 79.8125 287.746094 79.824219 289.792969 C 79.917969 312.835938 79.917969 312.835938 75.9375 320.308594 L 75.296875 321.390625 L 74.648438 322.582031 C 74.070312 323.625 73.488281 324.664062 72.894531 325.699219 C 72.480469 326.507812 72.070312 327.320312 71.675781 328.140625 L 70.453125 328.140625 L 70.035156 329.472656 C 68.25 333.300781 64.492188 335.648438 61.144531 338.054688 C 56.089844 341.558594 50.492188 344.117188 44.335938 344.804688 C 37.816406 345.304688 31.316406 345.292969 24.78125 345.261719 C 23.644531 345.257812 22.507812 345.253906 21.371094 345.253906 C 18.617188 345.246094 15.867188 345.234375 13.113281 345.222656 C 12.121094 343.238281 12.34375 341.039062 12.289062 338.855469 L 12.246094 337.308594 C 12.21875 336.230469 12.191406 335.152344 12.164062 334.074219 C 12.121094 332.417969 12.078125 330.761719 12.027344 329.105469 C 12 328.058594 11.972656 327.011719 11.945312 325.964844 L 11.902344 324.460938 C 11.824219 320.957031 11.824219 320.957031 12.503906 319.597656 L 14.757812 319.5625 C 17.546875 319.515625 20.332031 319.460938 23.117188 319.40625 C 24.316406 319.382812 25.515625 319.359375 26.71875 319.339844 C 28.453125 319.3125 30.1875 319.277344 31.925781 319.242188 L 33.527344 319.21875 C 38.011719 319.113281 42.632812 318.78125 46.625 316.585938 C 48.976562 315.003906 50.074219 314 51.339844 311.453125 C 52.582031 307.871094 52.40625 304.214844 52.390625 300.464844 C 52.390625 299.636719 52.394531 298.808594 52.398438 297.984375 C 52.40625 295.722656 52.40625 293.460938 52.398438 291.199219 C 52.398438 288.757812 52.40625 286.316406 52.410156 283.875 C 52.421875 279.644531 52.425781 275.417969 52.425781 271.1875 C 52.421875 265.074219 52.433594 258.960938 52.445312 252.84375 C 52.464844 242.320312 52.480469 231.800781 52.488281 221.277344 L 52.492188 214.058594 C 52.5 206.828125 52.503906 199.601562 52.515625 192.371094 C 52.527344 182.480469 52.539062 172.589844 52.558594 162.699219 C 52.570312 156.59375 52.578125 150.492188 52.578125 144.390625 C 52.578125 140.214844 52.582031 136.035156 52.59375 131.859375 C 52.597656 129.449219 52.597656 127.035156 52.597656 124.625 C 52.59375 122.417969 52.597656 120.214844 52.605469 118.007812 C 52.605469 116.828125 52.601562 115.644531 52.601562 114.464844 L 52.609375 112.359375 L 52.609375 110.53125 L 52.765625 109.105469 Z M 53.984375 107.886719 " fill-opacity="1" fill-rule="nonzero"/></svg>